<?xml version="1.0" encoding="UTF-8" standalone="no"?>
<svg
   xmlns:dc="http://purl.org/dc/elements/1.1/"
   xmlns:cc="http://creativecommons.org/ns#"
   xmlns:rdf="http://www.w3.org/1999/02/22-rdf-syntax-ns#"
   xmlns:svg="http://www.w3.org/2000/svg"
   xmlns="http://www.w3.org/2000/svg"
   xmlns:sodipodi="http://sodipodi.sourceforge.net/DTD/sodipodi-0.dtd"
   xmlns:inkscape="http://www.inkscape.org/namespaces/inkscape"
   width="255.13579mm"
   height="248.35857mm"
   viewBox="0 0 255.13579 248.35857"
   version="1.1"
   id="svg8"
   inkscape:version="1.0.1 (c497b03c, 2020-09-10)"
   sodipodi:docname="Logo_c.svg">
  <defs
     id="defs2">
    <clipPath
       clipPathUnits="userSpaceOnUse"
       id="clipPath2185">
      <rect
         style="display:inline;opacity:0.583815;fill:none;stroke:#10b807;stroke-width:0.4"
         id="rect2187"
         width="255.13579"
         height="264.33102"
         x="-146.46463"
         y="-20.905869" />
    </clipPath>
    <clipPath
       clipPathUnits="userSpaceOnUse"
       id="clipPath2189">
      <rect
         style="display:inline;opacity:0.583815;fill:none;stroke:#10b807;stroke-width:0.4"
         id="rect2191"
         width="255.13579"
         height="264.33102"
         x="-146.46463"
         y="-20.905869" />
    </clipPath>
    <clipPath
       clipPathUnits="userSpaceOnUse"
       id="clipPath2193">
      <rect
         style="display:inline;opacity:0.583815;fill:none;stroke:#10b807;stroke-width:0.4"
         id="rect2195"
         width="255.13579"
         height="264.33102"
         x="-146.46463"
         y="-20.905869" />
    </clipPath>
  </defs>
  <sodipodi:namedview
     id="base"
     pagecolor="#ffffff"
     bordercolor="#666666"
     borderopacity="1.0"
     inkscape:pageopacity="0.0"
     inkscape:pageshadow="2"
     inkscape:zoom="0.93890153"
     inkscape:cx="492.97882"
     inkscape:cy="279.60044"
     inkscape:document-units="mm"
     inkscape:current-layer="layer1"
     inkscape:document-rotation="0"
     showgrid="false"
     inkscape:window-width="1248"
     inkscape:window-height="760"
     inkscape:window-x="0"
     inkscape:window-y="25"
     inkscape:window-maximized="0" />
  <metadata
     id="metadata5">
    <rdf:RDF>
      <cc:Work
         rdf:about="">
        <dc:format>image/svg+xml</dc:format>
        <dc:type
           rdf:resource="http://purl.org/dc/dcmitype/StillImage" />
        <dc:title></dc:title>
      </cc:Work>
    </rdf:RDF>
  </metadata>
  <g
     inkscape:label="Ebene 1"
     inkscape:groupmode="layer"
     id="layer1"
     transform="translate(146.46463,4.9334106)">
    <path
       id="path2153"
       style="fill:#f5db28;stroke-width:1"
       d="m 32.493422,242.32269 c -4.918495,-5.2088 -1.553192,-28.03413 1.873454,-9.59916 0.612114,5.60051 10.963336,11.28293 -1.873454,9.59916 z m -5.237403,-2.56361 c -1.869936,-6.78007 2.600972,-0.70156 0,0 z m 11.356958,-2.44042 c -9.76108,-8.5359 10.355402,-30.90545 1.810223,-13.11033 -5.757368,3.7102 6.493092,13.2602 -1.810223,13.11033 z m -95.461845,-13.54361 c -15.264635,2.38379 -19.152006,-8.35734 -6.491468,-3.52899 0.521086,0.27402 13.951359,-8.39733 7.678177,2.68867 l -0.483976,1.06766 -0.702733,-0.22737 z m 82.362715,-2.30087 c -0.539068,-6.84508 -2.95184,-8.07043 2.015646,-13.04707 -1.699289,3.58449 4.288713,12.20284 -2.015646,13.04707 z m -143.556787,-0.47484 c 4.6411,-7.09329 4.14969,0.79711 0,0 z m 65.115659,-2.40693 c -5.267321,-13.91355 22.257723,0.18217 17.279832,-14.96711 14.560479,9.98627 -15.134249,16.14463 -17.279832,14.96711 z m 83.932957,0.55461 c -6.454702,-11.64888 4.831153,1.03362 0,0 z M -123.43324,8.6542413 c 13.6753,-16.3501113 40.053532,-16.5145068 58.435313,-8.03895357 12.159562,8.95551897 14.174035,-1.95763183 22.096655,8.50540687 6.233668,-1.0838675 24.524726,-0.315599 34.2194461,1.9502294 20.2134769,10.341906 9.06113419,6.379116 20.2134769,10.341906 19.103651,11.370064 26.736986,33.880717 38.520267,51.625115 3.693479,9.548561 13.178184,28.702015 1.207102,26.22742 1.910213,-16.391682 -5.987987,0.895355 2.17709,4.873685 -4.743897,10.19699 4.036169,21.94179 9.319568,31.27275 -1.774651,7.0903 1.754372,17.84591 9.791747,17.19461 -0.969532,3.63831 -6.952837,3.26002 2.93273,5.2674 0.619286,10.8912 -13.21503,11.15752 -14.042137,15.8417 -14.96766,4.10759 -13.547509,20.88642 -16.446399,35.14354 -1.858584,-8.90472 0.501417,-39.66518 -3.864635,-27.21772 -4.099461,5.66369 5.525257,23.56041 -0.167199,33.38502 -11.283052,6.55205 -4.522513,-6.79305 -14.04055,-8.72704 11.541309,0.51107 -2.625178,-15.83713 -2.393445,-6.64001 -3.287439,10.12038 -9.470743,-9.51751 -1.563931,-11.73675 -0.658006,-10.70167 2.583942,-13.69612 2.132193,0.54484 8.061106,4.91175 2.278755,-21.90717 3.477755,-29.65963 -6.996405,-13.15613 -9.678504,-22.81388 -8.711012,-37.40046 -1.296231,-7.49945 7.446926,-9.22458 0.532895,-15.34368 C 16.024769,95.194618 10.056219,85.441006 3.1856793,75.374229 1.7998037,70.682251 -5.1196214,67.961695 -7.8302926,64.750272 -9.7465833,58.733455 -10.484783,57.440098 -17.228799,54.469038 c -7.875373,-7.493484 -15.278569,-5.646142 -22.42993,-8.048797 -10.408444,-1.802579 -22.445223,2.204139 -32.699489,4.885154 -7.177446,6.976023 -23.362125,-2.998684 -33.299062,2.309842 -13.60398,0.24522 -27.39574,12.877708 -32.84678,26.071312 -58.09197,264.142111 -75.47053,1.935611 15.07082,-71.0323077 z M 35.909468,206.77474 c 6.957758,-28.35458 -9.34564,3.13958 0,0 z m -8.663069,-13.11949 c -3.653486,-2.6945 -1.258977,1.79618 0,0 z m 8.747115,-70.75343 c -1.33409,-4.57891 -1.822416,4.52123 0,0 z M -134.59908,47.432681 c 7.38422,-2.875973 20.20296,-5.958041 5.26722,-3.729464 -44.98324,137.507323 -48.9401,14.641432 -5.26722,3.729464 z M 37.884844,119.59363 c 1.74444,-5.30603 -11.850041,-18.53864 -3.391211,-4.71287 0.393305,-1.57836 2.76058,7.21302 3.391211,4.71287 z m 5.644444,-53.30086 c -1.926273,-9.192316 -23.829831,-20.38253 -8.123319,-6.361776 2.255156,1.11033 5.745788,8.093782 8.123319,6.361776 z M 28.178949,44.592453 c -3.695587,-11.059258 -8.393646,-3.242405 0,0 z M -43.959606,10.570961 c -0.566162,-3.5323938 -4.805806,1.61041 0,0 z M -110.61871,9.4362515 c 4.01462,-3.2464449 -7.36575,2.2000645 0,0 z M -68.654052,4.04126 c -11.656232,-9.2576071 -26.662576,-3.40623698 -6.824754,-2.3185965 2.404582,-0.1353977 4.669641,2.8792831 6.824754,2.3185965 z m -27.710696,-6.0445188 c -2.052498,-2.7862226 -7.586242,2.7622356 0,0 z m 5.869577,218.3401288 c -12.689139,-6.08266 17.166022,-2.80796 -3e-6,0 z M 28.714275,203.16076 c 0.934091,-6.62673 4.32001,2.69563 0,0 z m -75.760686,-3.27329 c -3.846466,-5.37128 6.016762,-5.0758 0,0 z M 3.4702192,168.2546 c -6.8120041,-4.78219 -15.2362882,-16.31519 -20.3540402,-4.97563 4.775128,-8.87831 -1.562725,-7.00372 -5.192572,-3.27751 -0.715489,-7.96379 -5.300837,-0.348 -10.081797,-3.56775 -5.540934,9.26532 -19.480518,5.02621 -3.114897,-0.44835 8.436239,-8.86013 27.4164868,0.20319 31.0356842,-0.72716 -5.2638404,-6.68401 -27.6017842,-8.66344 -6.5610862,-6.20203 9.6240196,2.14252 25.087857,11.76155 17.3743069,17.64099 1.0560998,0.94131 -2.8361302,3.57504 -3.1055987,1.55744 z M -139.82697,167.53143 c -1.9078,-7.72904 26.47603,-25.0593 9.10925,-9.6491 10.38322,-4.73225 28.79759,-8.77715 40.144234,2.95778 -5.21887,9.5895 -13.400234,-14.56315 -16.726424,2.90879 -5.11048,6.61946 5.35026,-13.5321 -2.46716,-6.3027 1.90736,8.67739 -15.1111,-3.31451 -5.87386,7.35498 12.74072,-0.72411 -7.28068,3.77936 -6.56636,-6.49309 -5.52405,4.36728 -11.83243,6.79098 -17.61968,9.22334 z m 26.65815,-9.6134 c -2.75025,-4.22161 -1.13034,4.05971 0,0 z m 60.311633,7.23249 c -11.31529,-14.72914 17.091768,-11.72521 25.090894,-17.61073 6.144048,2.27136 -20.306851,5.4447 -21.837757,12.09489 -2.26519,2.80966 6.08952,10.77925 -3.253137,5.51584 z m 30.420756,-0.44004 c -0.0753,-4.33087 5.558138,2.14243 0,0 z m 32.875162,-6.95421 c -0.184633,-3.13651 6.17409,1.90479 0,0 z m 3.457222,-1.88629 c -9.8141997,-0.76992 0.05395,-10.01646 -8.3052222,-9.74891 5.7860272,-2.39216 17.9900042,-9.3235 7.8876532,2.47494 5.500647,2.44659 9.255967,7.2782 1.211278,7.75601 l -0.79375,-0.48207 z m -106.812869,-0.84683 c -8.273594,-4.72421 -20.726444,-9.46145 -3.175861,-4.59022 5.96972,2.72898 15.776923,5.16426 3.175861,4.59022 z m -50.692894,-2.81077 c -5.00384,-8.21372 7.08597,3.88296 0,0 z m 3.34187,-5.78934 c 11.81867,-5.88877 8.01278,-0.61539 0,0 z m 14.8062,-4.84355 c 7.97308,-6.10755 24.22402,-10.13074 33.968547,-1.90527 -8.837417,3.72775 -19.876757,-1.6495 -23.396757,1.51531 -3.14407,0.0502 -7.66952,0.68502 -10.57179,0.38996 z m 135.794637,-1.07405 c -1.2898194,-4.81458 4.848138,3.73781 0,0 z m -16.8980561,-1.00273 c -11.1631569,-5.70064 -24.3928689,-0.10659 -30.8727069,-8.487 7.251045,-0.91039 11.404986,-1.43148 21.490507,2.3926 1.539236,1.78213 21.5094644,6.71106 9.3821999,6.0944 z M 0.69198471,77.191906 c -1.74255741,-3.931433 3.41242629,1.445419 0,0 z M -20.940854,54.737933 c -2.263418,-3.763735 5.945214,1.687991 0,0 z"
       clip-path="url(#clipPath2193)"
       sodipodi:nodetypes="ccccccccsccccsccccccccccccccccccccccccccccccccccccccccccccccccccccccccccccccccccssscccccccccccccccccccccccccccccccccccccccccccccccccccccccccc" />
    <path
       id="path2151"
       style="fill:#e23610;stroke-width:1"
       d="m 31.151476,241.4809 c -2.582541,-9.19235 7.138547,3.49458 0,0 z m -92.777735,-18.95323 c 2.238663,-7.21457 8.177827,-0.13056 0,0 z m -9.761821,-0.40391 c -6.271773,-7.28554 15.559752,1.41222 0,0 z m -46.65486,-0.96199 c 4.17208,-6.62913 4.62112,-0.40026 0,0 z m 69.747903,-4.50967 c -16.745995,-6.25589 25.060183,-5.11449 2.321185,0.41136 z m -41.702071,-0.33517 c -14.241692,-5.95661 16.052475,-2.70502 0,0 z m 124.777507,-1.41108 c -0.854068,-9.88934 7.044035,-20.2722 6.008061,-3.70284 -0.0044,2.92169 -3.211978,7.05151 -6.008061,3.70284 z m -71.615823,-0.9379 c -1.109107,-16.71057 10.18767,-5.93358 0,0 z m 75.409507,-17.55529 c -0.260918,-4.97031 2.66504,3.32065 0,0 z m 5.94124,-0.2364 c -1.034041,-10.53464 3.386217,-42.26453 -5.863632,-19.22773 -2.713396,7.20824 -3.221931,9.2464 -5.60875,15.37197 -0.790656,-14.87646 -1.803461,-28.84168 -5.431013,-43.93994 0.05645,-8.66125 -8.577655,-32.31965 3.575432,-16.80352 6.520917,10.32497 10.30146,20.56096 11.459986,22.01603 11.717806,11.34414 0.649716,-2.5348 -2.857078,-11.18115 1.7737,-7.32408 -17.348405,-21.95574 -10.233908,-20.96818 5.125283,-3.58089 13.279375,23.13998 10.360815,6.74933 2.383153,6.61396 9.978298,9.50553 2.633543,-2.46944 -3.637443,-5.48354 -7.427408,-24.86353 -13.99302,-20.18352 6.700067,10.88347 -3.542093,9.33032 -3.226967,-0.13449 C 23.519839,107.75388 19.036213,94.656172 20.055408,88.717491 11.074819,81.993221 9.1220891,70.733128 1.0191014,63.400465 -8.2366623,56.567017 -17.30403,47.966909 -27.430978,46.701828 c -6.434155,-0.856455 -13.629052,-6.653372 -19.644959,-1.897595 -7.195204,-1.183055 -16.130884,3.619076 -24.027902,5.576843 -6.808008,6.982033 -20.722863,0.553603 -30.946641,0.460825 -11.71547,2.891395 -24.45695,9.197866 -31.9056,20.411513 -8.53907,14.133353 -14.59159,30.385426 -15.57799,46.918606 -3.9928,1.24737 -17.21135,-27.123761 -0.20652,-49.060341 -23.18687,28.16759 7.22158,-17.957493 17.20238,-22.063725 9.21857,-3.046731 20.26552,-4.880697 2.47686,-4.132965 -71.21249,32.007955 -21.58474,50.767063 -4.83113,-22.864938 3.86736,-7.199705 27.31144,-23.2112879 24.15766,-19.75744575 -5.61413,2.05717715 26.806625,-1.61343645 14.124011,-4.09182745 15.556192,-2.8877501 33.742064,3.7277506 44.713683,12.7678281 0.639412,6.1670101 21.32318,3.3795201 11.919308,0.4939153 16.861367,-1.2550149 34.2995237,0.7124518 48.3219812,10.7809598 18.9698248,7.23882 23.6900508,28.018557 35.5552248,41.979817 6.570091,8.988261 8.034928,19.963921 3.529179,22.935534 6.065873,12.282337 -5.537793,7.184618 -3.846221,4.223957 1.805823,9.194604 -4.42669,9.413463 2.38083,16.560921 -2.655887,-15.877423 5.992002,8.51861 3.542122,8.1469 8.33982,9.78357 16.961915,29.59079 7.555433,32.25548 5.963498,6.11535 21.82757,8.38791 4.848749,10.48654 12.281001,4.38961 12.741069,2.00971 6.736652,5.67709 8.773632,1.69692 -7.462883,2.47058 1.561153,4.3342 -6.070637,-2.61256 -14.098649,17.04 -17.812546,8.19438 -1.208358,-17.97474 -4.503883,21.26174 -7.879416,21.13796 z m 14.007022,-24.93832 c -4.75126,-3.72967 -3.702666,3.05977 0,0 z m -4.858908,-18.93785 c -5.115317,-5.11437 -6.182498,0.57593 0,0 z m -9.14593,-14.14105 c -2.232646,-6.01441 -2.571923,1.09499 0,0 z m -1.693774,-27.2398 c -3.895528,-10.975984 -4.198475,-0.63114 0,0 z m -2.834909,-8.01715 c -1.893995,-3.491033 -2.898994,7.37067 0,0 z m -2.610474,-0.85126 c -2.121891,-5.190332 -4.106956,0.45339 0,0 z M 29.577967,87.567421 c 3.032124,-4.455378 -4.282458,1.447223 0,0 z m 1.251321,-4.155885 c -1.096552,-4.400064 -3.648344,-0.426632 0,0 z M 44.050976,67.175039 C 43.697859,57.04855 17.223448,44.472546 34.9428,60.268762 c 2.752525,1.374188 6.118157,7.634395 9.108176,6.906277 z M 32.06401,47.416432 c -2.495892,-3.741773 -2.236187,2.498491 0,0 z M -148.911,45.147944 c 0.0573,-11.028709 -2.86095,5.831396 0,0 z M 28.700901,44.496967 c -5.122141,-11.565524 -9.023531,-2.480364 0,0 z M -127.05276,41.287621 c 0.61852,-3.653315 -6.03842,2.955266 0,0 z m 64.585122,-28.120395 c -3.391556,-9.4004002 -9.285545,-5.5282357 0,0 z M -81.040299,12.00024 c 7.831909,-5.3316413 -9.637819,-4.3331556 -8.011975,-4.4871388 -9.924337,0.3462732 5.291722,4.4084058 8.011975,4.4871388 z M -110.34078,9.6046112 c 14.73614,-5.3674912 -14.5044,2.5299258 0,0 z m 11.612421,-3.1155639 c 4.333062,-1.9824248 -10.315311,0.9412262 0,0 z m 37.023374,-0.9407771 c -2.287367,-5.66100694 -2.75119,2.0495585 0,0 z M -67.819178,4.5403418 C -73.365726,-6.9390188 -103.41519,0.40763771 -80.623042,3.3029486 -82.845354,-4.0164056 -73.26514,5.526741 -67.819178,4.5403418 Z M -140.26794,166.66989 c 3.57916,-7.56251 23.41987,-23.7813 9.525,-8.49817 9.91288,-3.37583 26.5191,-9.32676 38.252434,1.21862 2.966414,13.75692 -14.232194,-14.45741 -14.759504,4.30765 -4.70434,6.80804 4.65631,-14.21995 -2.49144,-6.06832 2.17631,7.94884 -15.3718,-3.20796 -5.89949,7.17148 12.74717,-0.77115 -7.30798,3.90202 -6.51323,-6.53236 -5.5449,4.39695 -11.91076,5.89871 -18.11377,8.4011 z m 27.14517,-7.93857 c 0.0437,-5.59413 -3.76239,1.86251 0,0 z m 90.686339,5.97916 c -0.0753,-4.33087 5.558138,2.14243 0,0 z m 25.1991155,-1.06302 c -7.0092628,-6.61576 -19.6968145,-4.95296 -18.3897035,-1.88178 2.01119,-14.05231 -7.848723,5.89019 -7.751197,-6.73464 -4.798274,4.40959 -12.011045,-1.0188 -16.366655,7.68267 -9.320376,-4.49178 20.300143,-15.30879 27.53941,-8.76747 10.0744144,6.89547 13.13143469,2.31561 1.406955,-3.78938 -0.104907,-5.11276 23.654258,13.98625 13.5611905,13.4906 z m -50.5824275,-7.73631 c 6.677052,-5.87846 34.059184,-12.17623 11.14275,-4.10788 -2.597978,2.75461 -7.649636,5.09171 -11.14275,4.10788 z m -44.460219,-0.72263 c -11.652238,-5.14459 -15.318898,-9.67419 -0.861933,-3.10327 7.653303,0.87428 8.642698,4.0992 0.861933,3.10327 z m -32.804468,-13.39614 c 10.25935,-6.72785 17.07403,-6.15822 30.445594,-4.79245 0.177345,9.4218 -15.641574,-2.54089 -21.170564,4.54683 -3.23621,-1.00608 -6.7919,-0.0763 -9.27503,0.24562 z m 161.545625,-2.86842 c -8.293459,-16.68507 5.982801,5.64967 0,0 z m -57.949155,-2.60453 c -9.842397,-1.24747 -19.799552,-6.33327 -4.319531,-5.14346 0.756953,-2.2574 13.625617,7.08542 4.319531,5.14346 z M -47.759453,9.5680846 c -2.814689,-6.3902929 3.51098,0.011212 0,0 z M -105.8081,-2.0102368 c 7.483355,-3.5723018 11.076679,-0.4054245 0,0 z"
       clip-path="url(#clipPath2189)"
       sodipodi:nodetypes="ccccccccccccccccccccccccccccccccccccccccccccccccccccccccccccccccccccccccccccccccccccccccccccccccccccccccccccccccccccccccccccccccccccccccccc" />
    <path
       id="path2149"
       style="display:inline;fill:#050101;stroke-width:1"
       d="m 53.921455,175.80216 c -2.566547,-10.45126 6.157934,0.59454 0,0 z m -17.278961,-6.24548 c -8.721813,-13.32233 9.451103,-3.20602 0,0 z m 19.704859,0.70972 c -9.867141,-6.81696 11.059484,-2.9515 0,0 z m -172.802793,-4.72231 c -19.39179,-14.22175 27.085248,-16.1776 6.95084,-0.28069 7.85347,-6.30542 -2.4734,-15.53232 -0.88955,-4.36397 -10.74514,-5.65117 -7.84414,5.87746 -0.17688,4.15934 -1.97319,0.10341 -3.90657,1.0923 -5.88441,0.48532 z m 3.62928,-7.19066 c -1.34969,-6.27012 -3.84402,4.04357 0,0 z m 90.159933,5.99753 c 1.187373,-3.38181 4.664699,2.22695 0,0 z m 77.484405,0.18206 c -6.479031,-4.0926 5.369097,0.29574 0,0 z m -14.001172,-0.46294 c -8.409106,-2.84338 -10.838097,-7.15174 -6.005942,-7.13849 -9.024582,-8.97295 -3.726467,-13.95278 -2.114873,-18.59283 4.791431,5.58847 5.786035,18.36379 13.643956,22.62838 13.359326,-0.17536 -2.905668,2.46388 -5.523141,3.10294 z m 23.408581,-0.12844 c -0.20382,-3.25838 3.977252,0.98975 0,0 z m -81.021302,-0.82315 c 6.52116,-11.5277 -2.045971,-4.00881 -6.291376,-4.20227 0.440676,-13.77903 21.202319,-1.82391 6.291376,4.20227 z m 77.785896,-2.11927 c -16.195538,-2.47275 -7.163762,-11.81973 1.759746,-1.969 1.251048,1.18439 -0.678456,3.10277 -1.759746,1.969 z m -89.050903,-2.77499 c -2.948522,-9.06918 9.235925,-3.21479 0,0 z m 76.127008,-4.95848 c -1.986835,-4.2254 6.474119,3.14078 0,0 z m 4.635225,-2.72726 c -5.283977,-6.31979 6.28367,3.30631 0,0 z m 8.126755,-0.10713 c -9.832641,-1.7014 -0.486216,-4.30017 1.058334,0.50835 z m -4.83967,-8.29963 c -7.282679,-15.43247 -14.730901,-27.11867 -23.305514,-38.98546 -0.778354,-8.310088 13.443842,15.14129 16.815793,19.75555 1.150283,5.01546 12.473421,17.12647 6.489721,19.22991 z m -3.949842,-2.31413 c -2.374039,-4.96278 4.293775,3.98416 0,0 z m 7.7901,-2.49927 c -12.085438,-19.04465 6.002769,4.71461 0,0 z m -12.176482,-4.27414 c -4.511964,-8.06373 4.522264,1.21148 0,0 z m -3.23208,-5.89151 c -1.425048,-6.10226 4.026006,4.23024 0,0 z m -2.009937,-4.33905 c -4.331468,-6.7682 2.163268,-3.51559 0.788267,0.76353 l -0.788267,-0.76348 z M -146.38887,60.130186 c 2.19902,-14.729845 28.74298,-13.520098 29.3928,-17.888696 -6.92928,-1.932923 9.10953,-1.272441 4.29849,3.565522 25.07805,3.418031 -21.66918,-1.080834 -0.42219,2.675481 7.75733,4.532884 -18.39639,10.403345 -21.28434,20.237825 -49.78279,75.075912 8.73955,-24.268376 -11.98476,-8.590132 z M 37.946336,99.507562 C 29.634878,95.475786 31.566332,84.77831 36.821512,90.025798 29.661188,87.499869 29.473974,67.432548 26.625817,81.995589 29.795368,87.000365 22.96155,94.308388 21.607428,84.819613 11.558104,74.775485 4.9783854,59.115636 -8.3405275,52.69905 -17.055408,43.729484 -32.645427,43.485587 -44.569868,38.791583 c -9.235339,-0.5651 -16.661554,0.345072 -25.076719,5.757627 -13.285684,6.48376 -25.300497,-3.461774 -38.871353,-4.653245 -13.14216,-4.175175 -27.29678,2.517005 -38.77762,6.440866 6.72528,-6.170218 5.37725,-19.368955 14.61233,-21.507224 6.48965,-3.77026 -9.04847,0.06924 1.87593,-7.500314 8.86761,-8.1465395 21.11062,-20.4728986 35.153369,-15.9796991 9.039943,5.941054 1.431835,3.9294696 -9.198849,5.1489855 -9.12089,1.2489344 -23.06085,9.4950076 -5.58272,3.8426176 11.8824,-6.4254094 20.458501,1.532336 34.804214,4.257855 15.828875,6.41252 -19.087531,-15.8642608 1.795522,-6.2121556 3.393494,-7.77532335 19.272201,18.5849036 20.652504,5.7487856 5.704943,6.793308 9.907079,-3.038185 13.861902,4.119514 -0.932163,-14.3815691 10.295845,1.938328 8.735741,3.4338 -0.546616,1.594463 2.22876,6.314747 6.055332,-1.912828 -3.781532,0.961794 -7.340963,-12.4194797 6.32344,-8.39405 -12.96651,6.412897 17.49824302,-4.5502429 2.541988,6.009113 14.99340102,-7.5267503 32.129809,6.801061 41.937056,17.969596 8.531555,10.246747 0.668719,5.624903 -3.758806,3.415874 -1.246761,4.540184 4.687189,5.438925 1.944395,9.200812 6.551889,6.335696 -3.957038,5.588733 7.954748,12.995294 7.778886,6.425707 9.749525,14.446326 5.739839,13.694011 1.906381,5.180756 -2.020095,7.641925 4.615568,12.954618 -9.333699,-3.378777 4.831722,12.089283 -7.547732,4.971887 2.31255,0.539426 6.101912,8.242847 2.726125,6.914239 z M 25.184843,80.711146 c -2.011414,-4.977735 -6.914452,-0.644547 0,0 z m 2.315474,-15.162229 c -0.723994,-7.920257 -2.525026,5.995848 0,0 z m 5.912563,0.99666 c -0.523729,-4.427381 -3.742111,0.151177 0,0 z M 20.017216,52.783749 c -0.551854,-5.192907 -7.621046,0.973644 0,0 z m -4.147908,-2.254882 c -3.355597,-3.787381 -8.273157,1.297549 0,0 z m 2.054736,-1.924505 c 1.434671,-2.705989 -4.648136,-0.161593 0,0 z M -81.92503,43.605314 c -8.449592,-4.871851 -3.319119,2.37493 0,0 z m 100.201852,0.412937 c 0.738472,-4.806255 -8.103278,-0.458153 0,0 z m -6.664375,-2.270763 c -7.4915696,-5.332136 -11.52197823,1.077211 0,0 z M -99.059321,39.554029 c -4.311219,-2.953455 -5.451659,2.038116 0,0 z m 40.803346,-1.304516 c -3.117025,-7.488083 -7.218162,0.993466 0,0 z m 84.156269,-2.112529 c -3.633852,-2.797773 1.271094,4.397232 3e-6,0 z M -86.998497,20.463079 c -4.89827,-3.767212 -13.308383,-0.01309 0,0 z m 22.80882,-0.411187 c -2.073253,-3.703075 -4.651282,1.562184 0,0 z m -30.569932,-1.748674 c 7.597887,-6.350579 -11.812671,0.86926 0,0 z M -99.90374,2.3904753 c 1.517483,-2.87421434 -4.21053,0.2491962 0,0 z m -4.38795,41.6569927 c -0.0565,-2.656388 5.486568,2.581988 0,0 z M -64.949885,2.2518301 c -7.980862,-3.444752 3.625017,-0.9269271 0,0 z m -25.598153,-4.9795534 c -6.886432,-3.1290981 9.460934,0.8085767 0,0 z m 8.846711,0.020426 c -7.91606,-3.6271754 8.185007,1.413421 0,0 z"
       clip-path="url(#clipPath2185)"
       sodipodi:nodetypes="cccccccccccccccccccccccccccccccccccccccccccccccccccsccsccccccccccccccccccccccccccccccccccccccccccccccccccccccccccssscccccccccccccccc" />
  </g>
</svg>
